<?xml version="1.0" encoding="utf-8"?>
<!-- Generator: Adobe Illustrator 25.2.1, SVG Export Plug-In . SVG Version: 6.00 Build 0)  -->
<svg version="1.1" xmlns="http://www.w3.org/2000/svg" xmlns:xlink="http://www.w3.org/1999/xlink" x="0px" y="0px"
	 viewBox="0 0 654.48 202.13" style="enable-background:new 0 0 654.48 202.13;" xml:space="preserve">
<style type="text/css">
	.st0{fill:#F9F9F9;}
	.st1{fill:#939393;}
	.st2{fill:#457BAE;}
	.st3{fill:#9C9C9C;}
	.st4{fill:#868686;}
	.st5{fill:#777777;}
	.st6{fill:#65A5C7;}
	.st7{fill:#5BA9CC;}
	.st8{fill:#B6B6B6;}
	.st9{fill:#D0D0D0;}
	.st10{fill:#E3F0F6;}
	.st11{fill:#E7F5F8;}
	.st12{fill:#C7DFEA;}
	.st13{fill:#A9A9AA;}
	.st14{fill:#F8F8F8;}
	.st15{fill:#F3F3F3;}
	.st16{fill:#EFEFEF;}
</style>
<g id="Layer_2">
	<path class="st0" d="M16.18,172.76c-2.59-2.35-5.14-4.66-4.67-7.12c1.7-8.87,41.56-12.66,45.24-3.52c1.93,4.8-6.65,11.78-7.4,12.38
		C39.48,182.39,24.52,180.32,16.18,172.76z"/>
</g>
<g id="Layer_1">
	<g>
		<path class="st1" d="M8.31,160.66c-4.01-7.81-6.68-16.03-7.49-24.81c-0.66-1.56-0.28-3.19-0.29-4.78
			c-0.02-3.34,0.85-4.05,4.01-2.98c3.8,1.28,7.7,1.92,11.66,2.33c20.66,2.13,38.1-4.53,52.57-19.28c1.03-1.05,1.85-2.37,3.34-2.91
			c7.61-1.08,15.05-2.91,22.45-4.97c2.7-0.75,5.72-1.6,7.41,1.95c0.5,3.11-1.21,5.73-1.93,8.57c-0.44,1.75-1.52,3.35-1.01,5.35
			c3.19-4.55,4.05-9.95,5.48-15.15c0.62-1.95,2.03-3.06,3.91-3.6c4.86-1.39,9.72-2.77,14.79-3.26c2.17-0.21,3.92,0.24,4.93,2.36
			c0.77,9.37,0.77,18.66-2.83,27.58c-5.62,1.32-10.88,4.01-16.76,4.4c-3.52,0.23-6.74,1.7-10.09,2.6c-1.32,0.35-2.64,0.74-4.03,0.7
			c-2.47-1.88-4.69-2.15-6.57,0.87c-0.44,0.7-1.39,0.95-2.25,1.13c-4.79,0.92-9.5,2.21-14.17,3.49
			c-14.45,3.99-29.27,6.33-43.73,10.18c-4.82,1.28-9.67,2.43-14.51,3.61c-2.77,0.67-4.66,1.72-4.12,5.01
			C9.17,159.64,8.83,160.24,8.31,160.66z"/>
		<path class="st2" d="M147.66,110.44c3.98,15.74,2.68,31.16-3.77,45.94c-10.54,24.16-29.08,38.97-54.82,44.36
			c-9.66,2.02-19.56,1.78-29.32-0.31c-0.84-0.18-1.73-0.18-2.59-0.26c-0.82-2.81,1.66-2.55,3-2.95c10.01-2.98,19.2-7.51,27.73-13.56
			c17.74-12.59,29.35-29.49,35.99-50.02c0.45-1.38,0.44-3.02,1.93-3.9c2.66,0.43,1.17,2.44,1.56,4.4c0.64-2.17-0.39-3.96,0.44-5.47
			c1.09-1.99,2.87-3.25,5.12-3.2c3.02,0.07,4.86-1.45,6.39-3.75c2.13-3.2,4.38-6.32,6.17-9.72
			C145.96,111.14,146.34,110.14,147.66,110.44z"/>
		<path class="st3" d="M149.95,171.18c14.56-26.8,15.65-53.82,3.31-81.63c6.22,0,12.04-0.09,17.86,0.04c2.56,0.06,4.25,1.84,5.7,3.8
			c8.55,11.54,15.2,24.23,22.22,36.69c0.72,1.27,0.62,2.1-0.24,3.27c-8.88,12.15-17.48,24.51-27.03,36.16
			c-0.74,0.9-1.42,1.68-2.71,1.68C162.86,171.16,156.67,171.18,149.95,171.18z"/>
		<path class="st4" d="M93.59,134.29c10.25-2.89,20.61-5.34,31.07-7.39c0.75,2.51-0.2,4.83-0.87,7.16
			c-1.58,5.47-4.04,10.59-6.49,15.7c-0.73,1.53-1.37,3.24-3.33,3.72c-5.3,0.69-10.3,2.75-15.55,3.6
			c-11.91,1.93-23.43,5.44-35.12,8.24c-2.62,0.63-5.22,1.38-7.96,1.14c-1.03-3.68-2.92-4.8-6.19-3.87
			c-5.2,1.48-10.38,3.13-15.86,3.3c-6.35,0.43-12.7,0.48-19.05-0.03c-4.18,0.77-4.66-2.65-5.91-5.2c-0.09-0.98-0.04-2-0.3-2.93
			c-0.63-2.25,0.03-3.44,2.41-4.01c16.31-3.95,32.54-8.19,49.06-11.34c7.11-1.35,14.17-3.49,21.17-5.55
			c1.92-0.56,3.79-1.21,5.83-0.92c-0.38,2.65-2.33,4.31-4,6.1c-3.15,3.37-6.49,6.55-10.16,9.37c-0.85,0.65-2.07,1.37-1.11,2.71
			c1.06,1.49,2.25,0.66,3.19-0.17c5.61-4.95,11.05-10.07,15.56-16.1C90.96,136.46,91.62,134.68,93.59,134.29z"/>
		<path class="st5" d="M55.33,166.46c2.67-2.44,6.3-1.72,9.41-2.61c8.76-2.52,17.63-4.83,26.55-6.64c6.89-1.4,13.77-2.71,20.5-4.75
			c0.88-0.27,1.74-0.13,2.29,0.76c-1,4.52-3.99,8-6.66,11.45c-12.8,16.57-29.45,27.56-49.67,33.14c-0.97,0.27-1.95,0.38-2.95,0.1
			c-5.76,0.98-10.33-2.18-15.05-4.52c-9.04-4.49-19.87-14.07-23.57-20.63C29.83,173.64,42.78,171.25,55.33,166.46z"/>
		<path class="st3" d="M430.75,108.27c-2.64,4.96-5.31,9.9-7.93,14.87c-5.32,10.12-10.63,20.25-15.9,30.41
			c-0.97,1.87-2.21,2.64-4.42,2.53c-4.23-0.21-8.48-0.04-12.72-0.05c-1.23,0-2.69,0.23-2.86-1.56c-0.17-1.77,1.18-2.1,2.48-1.99
			c3.3,0.3,4.25-1.4,4.51-4.38c0.58-6.72,0.25-13.44,0.31-20.16c0.06-7.1-0.02-14.21-0.13-21.31c-0.05-3.1-0.69-5.8-4.84-5.32
			c-1.22,0.14-2.35-0.3-2.3-1.78c0.07-1.82,1.47-1.74,2.75-1.6c6.59,0.69,13.18,0.59,19.78,0.03c1.17-0.1,2.67-0.5,2.89,1.39
			c0.21,1.79-1.05,2.16-2.38,2.02c-3.82-0.4-4.36,2.17-4.41,4.92c-0.12,6.23-0.08,12.46-0.08,18.69c-0.01,6.94,0,13.88,0,21.63
			c2.05-2.02,2.81-3.93,3.74-5.72c6.95-13.34,13.94-26.67,20.8-40.06c1.12-2.19,2.21-3.05,4.86-2.72c4.06,0.51,8.21,0.43,12.31-0.14
			c1.2-0.17,2.75-0.5,2.99,1.27c0.26,1.97-1.32,2.27-2.73,2.1c-3.07-0.39-3.99,1.34-4.13,3.89c-0.16,2.98-0.33,5.96-0.34,8.95
			c-0.03,10.09-0.02,20.19,0.04,30.28c0.01,1.6,0.41,3.2,0.47,4.81c0.08,2.39,1.27,3.27,3.58,3.16c1.49-0.07,3.28-0.04,3.14,2.17
			c-0.14,2.21-2.01,1.41-3.2,1.42c-6.61,0.05-13.23,0.03-19.84-0.03c-1.11-0.01-2.72,0.59-2.88-1.39c-0.16-2.01,1.38-2.28,2.76-2.12
			c3.57,0.41,4.31-1.96,4.4-4.55c0.22-6.1,0.21-12.21,0.24-18.31c0.03-7.03,0.01-14.06,0.01-21.08
			C431.39,108.44,431.07,108.35,430.75,108.27z"/>
		<path class="st3" d="M508.89,123.14c3.49,0,7-0.14,10.48,0.05c2.53,0.14,3.2-0.83,3.11-3.22c-0.18-4.73-0.14-9.47-0.09-14.21
			c0.03-2.83-0.87-4.59-4.08-4.38c-1.42,0.09-2.92,0.02-2.7-2.07c0.23-2.23,1.82-1.03,2.86-1.04c6.48-0.09,12.97,0.43,19.44-0.27
			c1.19-0.13,2.73-0.54,2.98,1.27c0.28,2-1.28,2.23-2.71,2.11c-2.98-0.26-3.8,1.13-3.95,3.94c-0.75,14.44-0.85,28.86,0.01,43.29
			c0.16,2.63,0.96,3.95,3.73,3.82c1.34-0.06,3.02-0.09,2.92,1.94c-0.1,2.09-1.84,1.62-3.14,1.62c-6.49,0.03-12.98,0.02-19.47,0
			c-1.17,0-2.63,0.42-2.71-1.58c-0.08-1.82,1.1-2.1,2.43-2c3.6,0.26,4.47-1.7,4.41-4.85c-0.1-5.73-0.07-11.47,0.05-17.2
			c0.04-2.09-0.65-2.85-2.77-2.82c-7.24,0.1-14.48,0.1-21.71,0.01c-2.17-0.03-2.79,0.81-2.75,2.86c0.13,5.98,0.17,11.96,0.14,17.94
			c-0.01,2.76,0.96,4.22,3.95,4.05c1.36-0.08,2.88,0.06,2.8,2.1c-0.08,2.07-1.67,1.46-2.78,1.47c-6.74,0.05-13.48,0.04-20.21,0.02
			c-1.07,0-2.36,0.3-2.44-1.47c-0.08-1.77,1.1-2.19,2.42-2.07c3.57,0.31,4.3-1.48,4.45-4.7c0.63-13.95,0.58-27.88-0.03-41.83
			c-0.13-2.93-0.7-4.89-4.21-4.56c-1.47,0.14-2.84-0.29-2.61-2.25c0.22-1.94,1.68-0.96,2.62-0.96c6.73-0.01,13.47,0.06,20.2,0.07
			c1.06,0,2.35-0.63,2.58,1.15c0.24,1.86-1.02,2.08-2.36,1.98c-3.61-0.29-4.47,1.7-4.41,4.83c0.08,4.73,0.03,9.47-0.12,14.21
			c-0.07,2.13,0.71,2.85,2.81,2.77C501.65,123.05,505.27,123.14,508.89,123.14z"/>
		<path class="st3" d="M362.78,126.24c0-6.98-0.07-13.96,0.04-20.94c0.04-2.38-0.66-3.33-3.17-3.28
			c-6.61,0.14-13.23,0.12-19.84,0.03c-2.22-0.03-3.19,0.73-3.19,2.99c0.04,14.08,0,28.17,0.04,42.25c0.01,3.22,0.97,5.63,4.98,5.21
			c1.36-0.14,2.49,0.48,2.34,2.17c-0.15,1.73-1.48,1.34-2.54,1.34c-6.99,0.01-13.98,0-20.97,0.02c-1.19,0-2.36-0.03-2.42-1.6
			c-0.06-1.44,0.93-2.11,2.17-1.96c4.76,0.59,4.92-2.78,5-5.91c0.16-6.35,0.1-12.71,0.09-19.07c0-6.86-0.01-13.71-0.08-20.57
			c-0.03-3.19-0.46-6.11-4.89-5.61c-1.18,0.13-2.36-0.33-2.3-1.81c0.07-1.79,1.51-1.73,2.76-1.66c10.47,0.62,20.95,0.55,31.42,0.47
			c8.48-0.07,16.96,0.39,25.44-0.4c1.31-0.12,3.41-0.84,3.69,1.34c0.32,2.55-1.92,2.16-3.43,2.14c-2.52-0.03-3.07,1.28-3.2,3.52
			c-0.83,14.69-0.85,29.37-0.02,44.06c0.15,2.67,1.24,3.5,3.67,3.45c1.5-0.03,3.27-0.05,3.06,2.21c-0.21,2.22-2.06,1.34-3.23,1.35
			c-6.49,0.07-12.98,0.04-19.47,0.01c-1.16-0.01-2.66,0.5-2.82-1.48c-0.14-1.76,1.02-2.17,2.39-2.07c3.97,0.3,4.47-2.25,4.47-5.26
			C362.78,140.2,362.78,133.22,362.78,126.24z"/>
		<path class="st6" d="M227.07,156.19c-2.05-3.68-4.27-7.28-6.11-11.07c-1.37-2.82-2.3-2.55-3.91-0.22
			c-9.68,14.04-19.32,28.11-27.8,42.92c-1.27,2.22-2.59,2.85-4.98,2.75c-4.86-0.19-9.73-0.11-14.6-0.04
			c-1.76,0.02-2.86-0.32-2.88-2.41c-0.02-2-0.56-4.8,2.14-4.69c8.58,0.34,12.02-6.15,16.16-11.56
			c9.69-12.65,19.16-25.47,28.73-38.22c3.29,0.73,5.01-1.56,6.96-3.52c5.38-5.41,10.68-10.9,15.93-16.43
			c0.68-0.72,1.35-1.5,2.25-1.92c1.16-0.54,2.37-0.9,2.54,1.06c-0.23,0.29-0.44,0.6-0.69,0.86c-5.21,5.48-5.27,6.37-1.79,12.79
			c1.82,3.35,4.08,6.48,5.25,10.18c1.15,3.26,0.08,5.66-2.64,7.69c-3.99,2.97-6.86,7.2-10.99,10.03
			C229.53,155.14,228.58,156.22,227.07,156.19z"/>
		<path class="st7" d="M0.15,126.1c0.23-21.94,8.91-40.19,25.12-54.61c11.55-10.28,25.19-16.8,40.78-18.7
			c2.44-0.77,4.95-0.15,7.42-0.36c2.25,0.94,1.04,2.08,0.03,2.94c-7.53,6.47-15.24,12.72-22.09,19.96c-2.19,2.31-5.47,3.4-7.87,5.61
			c-2.83,2.6-5.87,4.91-8.23,8.09c-2.05,2.76-5.3,4.45-8,6.6c-6.31,5.03-11.94,10.78-18.05,16.02c-2.36,2.02-3.61,4.96-6.07,7.03
			c-2.04,1.72-0.84,5.04-2.07,7.38C0.81,126.33,0.48,126.34,0.15,126.1z"/>
		<path class="st6" d="M241.51,112.83c-2.93-2.51-4.02,1.17-4.7,2.13c-2.69,3.78-6.77,6.08-9.51,9.77
			c-2.04,2.75-4.99,4.81-7.22,7.44c-1.86,2.2-3.72,2.89-6.26,1.47c-0.71-5.12-4.51-8.73-6.47-13.25c-0.59-1.36-1.34-2.64-2.01-3.96
			c0.08-4.57,0.92-5.63,5.28-6.63c1.21-0.28,2.46-0.37,3.67-0.66c4.34-1.01,4.97-1.89,4.51-6.31c-0.41-3.97,0.44-5.09,4.01-5.24
			c2.19,3.89,4.46,7.74,6.53,11.7c1.02,1.96,1.69,1.72,2.78,0.11c8.98-13.29,18.32-26.34,26.73-39.99c1.43-2.33,2.94-3.24,5.64-3.11
			c4.35,0.2,8.72,0.02,13.09-0.03c1.44-0.02,2.98-0.09,2.78,1.95c-0.18,1.78,1.2,5-1.59,4.96c-9.03-0.13-12.48,6.98-16.91,12.5
			C254.77,94.48,248.26,103.75,241.51,112.83z"/>
		<path class="st3" d="M570.06,156.02c-5.86,0-11.73,0.01-17.59-0.01c-0.82,0-1.91,0.35-2.27-0.73c-0.34-1.01,0.54-1.61,1.28-2.03
			c2.07-1.18,2.28-3.14,2.28-5.18c0.02-13.58,0.06-27.17-0.02-40.75c-0.02-3.09,0.03-6.57-4.84-5.97c-1.43,0.18-2.01-0.73-1.87-2.11
			c0.15-1.41,1.16-1.4,2.21-1.31c12.09,1.01,24.18,0.15,36.26-0.17c3.15-0.08,4.1,1.03,3.48,3.85c-0.51,2.33-0.68,4.68-0.71,7.05
			c-0.01,0.96-0.28,1.7-1.47,1.71c-1.19,0.01-1.58-0.71-1.44-1.68c0.76-5.16-2.22-5.82-6.43-6.06c-3.36-0.19-6.71-0.29-10.07-0.3
			c-2,0-2.97,0.84-3.26,3.1c-0.7,5.35-0.28,10.7-0.44,16.05c-0.05,1.76,0.85,2.44,2.54,2.4c2.24-0.05,4.5-0.14,6.74,0.03
			c3.85,0.29,7.08-0.04,7.04-5.08c-0.01-0.91,0.28-1.76,1.53-1.61c1.08,0.13,1.46,0.82,1.46,1.8c0,4.74,0.01,9.47,0.01,14.21
			c0,0.91-0.08,1.77-1.29,1.87c-1.17,0.1-1.78-0.36-2.13-1.54c-1.78-5.9-1.81-5.95-8.22-5.92c-9.15,0.04-7.55-0.99-7.67,7.75
			c-0.06,4.24,0.09,8.47,0.04,12.71c-0.03,2.5,0.92,3.59,3.57,3.44c4.6-0.25,9.2-0.03,13.82-0.48c3.16-0.31,4.62-1.33,5.22-4.52
			c0.29-1.54-0.41-5.03,2.53-4.36c2.11,0.48,0.58,3.17,0.42,4.9c-0.05,0.5-0.07,0.99-0.1,1.49c-0.46,7.47-0.46,7.46-7.87,7.43
			C578.54,156,574.3,156.02,570.06,156.02z"/>
		<path class="st3" d="M290.85,156c-5.99,0-11.98,0.01-17.97-0.01c-0.71,0-1.6,0.28-2.02-0.52c-0.56-1.08,0.37-1.59,1.08-2.05
			c2.05-1.33,2.39-3.31,2.39-5.53c-0.01-13.46,0.03-26.93,0-40.39c-0.01-3.34-0.13-6.74-5.07-6.19c-1.28,0.14-2.26-0.51-2.09-1.96
			c0.18-1.52,1.42-1.57,2.57-1.44c8.47,0.9,16.96,0.28,25.43,0.34c3.86,0.02,7.73-0.18,11.58-0.44c2.37-0.16,3.14,0.75,2.83,3.03
			c-0.35,2.59-0.54,5.19-0.75,7.8c-0.08,0.94-0.2,1.73-1.41,1.75c-1.17,0.02-1.63-0.69-1.47-1.66c0.83-5.12-2.13-5.86-6.31-6.14
			c-3.5-0.23-6.97-0.24-10.45-0.24c-2.28,0-3.42,1.24-3.44,3.49c-0.05,5.24-0.05,10.47-0.14,15.71c-0.03,1.8,0.79,2.41,2.5,2.37
			c2.87-0.06,5.76-0.21,8.61,0.04c3.45,0.3,5.15-1.07,5.32-4.48c0.05-1.08-0.16-2.42,1.63-2.26c1.43,0.13,1.32,1.23,1.32,2.23
			c0,4.49,0.01,8.98-0.01,13.46c0,0.97,0.17,2.06-1.31,2.23c-1.74,0.2-1.82-1.16-1.83-2.18c-0.05-4.61-3.04-5.28-6.72-5.33
			c-9.49-0.14-9.5-0.17-9.49,9.32c0,3.86,0.07,7.73,0.02,11.59c-0.02,1.93,0.5,3.12,2.73,3.02c4.97-0.23,9.94,0.08,14.94-0.44
			c3.31-0.34,4.66-1.71,5.07-4.69c0.15-1.1,0.37-2.2,0.67-3.26c0.22-0.78,0.88-1.21,1.71-1.19c1.07,0.02,1.11,0.87,1.06,1.6
			c-0.22,3.72-0.46,7.45-0.77,11.17c-0.14,1.71-1.56,1.3-2.6,1.3c-5.87,0.03-11.73,0.01-17.6,0.01
			C290.85,156.04,290.85,156.02,290.85,156z"/>
		<path class="st3" d="M652.55,147.96c-0.66,3.92-2.54,5.53-5.33,6.61c-8.38,3.24-16.94,3.77-25.65,1.89
			c-18.62-4.01-25.39-22.94-21.72-37.56c2.99-11.92,11.3-18.46,22.85-20.93c9.15-1.96,18.32-1.25,27.23,1.89
			c1.87,0.66,2.9,1.2,2.27,3.62c-0.73,2.85-0.76,5.9-1.03,8.86c-0.1,1.11-0.35,2-1.7,1.91c-1.23-0.08-1.13-1.08-1.25-1.93
			c-0.97-6.68-5.24-10.38-12.54-10.87c-14.81-1-23.63,6.95-24.24,21.75c-0.3,7.12,0.67,13.78,5.06,19.78
			c5.65,7.73,13.44,9.66,22.36,9.07C643.47,151.74,647.72,150.03,652.55,147.96z"/>
		<path class="st8" d="M106.6,44.51c6.04,6.99,10.54,14.95,13.95,23.46c0.87,2.16,3.32,1.61,3.96,3.48
			c0.31,1.54,1.35,3.06,0.16,4.65c-0.31,0.19-0.65,0.28-1.02,0.28c-1.59-0.46-1.71-1.86-2.14-3.14c-0.62-1.81-2.12-3.13-3.92-2.51
			c-3.13,1.07-6.38,1.83-9.38,3.27c-1.21,0.58-1.5,1.9-2.3,2.81c-0.96,0.41-1.73,0.02-2.44-0.58c-0.92-1.75-2.16-0.57-3.18-0.24
			c-4.03,1.29-8.22,1.7-12.34,2.46c-1.03,0.19-2.25,0.56-2.96-0.77c1.08-8.89-0.68-17.61-1.54-26.39c-0.31-1.73-0.62-3.47-0.93-5.2
			c-1.81-5.53,0.17-7.94,5.78-7.05c4.68,4.15,7.14,9.75,9.71,15.22c1.85,3.93,3.24,8.06,4.28,12.28
			c-1.87-8.21-5.36-15.74-9.79-22.86c-0.59-0.94-1.39-1.77-1.46-2.96c1.33-3.55,2.35-4.06,5.78-3.26
			C101.09,38.44,103.9,41.38,106.6,44.51z"/>
		<path class="st2" d="M124.38,76.01c0.81-1.5-1.18-3.07,0.12-4.55c11.76,10.6,19.91,23.34,23.15,38.98
			c-2.63,4.07-5.24,8.14-7.89,12.19c-1.6,2.44-3.32,4.28-6.85,3.65c-2.81-0.5-5.01,2.46-4.46,5.32c0.16,0.84,0.77,1.65,0.21,2.48
			c-0.53,0.79-1.09,1.89-2.29,1.43c-1.25-0.48-0.55-1.44-0.22-2.18c0.52-1.17,1.03-2.3-0.01-3.44c-1.73-2.86,0.26-5.51,0.75-8.11
			c2.68-14.17,1.34-28.04-2.32-41.83C124.23,78.66,123.58,77.36,124.38,76.01z"/>
		<path class="st6" d="M227.07,156.19c5.69-3.86,9.83-9.47,15.33-13.55c2-1.49,1.42-3.93,1.88-5.99
			c4.76,8.05,9.53,16.09,14.28,24.15c0.37,0.62,0.94,1.19,0.73,2.03c-0.21,0.69-0.2,1.99-0.8,1.93c-3.79-0.38-4.17,3.38-6.31,4.96
			c-2.3,1.7-4.11,3.94-6.22,5.86c-1.93,1.76-3.82,3.65-6.82,2.95C235.11,171.08,231.09,163.64,227.07,156.19z"/>
		<path class="st6" d="M222.8,97.59c-3.7,0.85-4.08,3.83-2.79,6.24c1.82,3.38-0.39,4.18-2.38,5.28c-1.39,0.77-2.95,1.3-4.6,1.31
			c-4.13,0.01-6.96,1.68-7.7,6.01c-3.45-4.97-6.31-10.27-9.02-15.66c-0.34-1.92,1-3.24,1.71-4.79c0.26-0.57,0.57-1.23,0-1.7
			c-0.63-0.52-1.16-0.01-1.57,0.46c-0.84,0.98-1.79,1.52-2.78,0.33c-1.03-1.24-2.15-2.55-1.06-4.34c0.72-1.18,1.75-2.08,2.81-2.96
			c2.49-2.07,4.86-4.29,6.69-6.98c1.27-1.87,4.06-2.45,3.84-5.74c-0.11-1.55,1.83-0.63,2.84,0.18c2.07,1.65,2.78,4.42,4.98,5.95
			C217.21,86.41,220.14,91.93,222.8,97.59z"/>
		<path class="st6" d="M213.75,81.17c-2.68,0.25-2.77-2.28-3.97-3.65c-0.86-0.99-1.9-1.81-2.9-2.75c-1.74,1.98,0.19,3.46,0.72,5.9
			c-2.58-2.59-3.7-1.05-4.81,0.66c-1.98,3.05-4.65,5.41-7.49,7.64c-2.22,1.74-3.8,3.76-0.22,6.22c0.77-1.42,1.18-3.93,3.68-2.16
			c0.96,0.68,1.64,1.45,0.68,2.77c-1.15,1.58-2.1,3.3-3.14,4.95c-2.93-4.43-5.92-8.83-8.78-13.32c-1.88-2.96-4.26-5.46-6.7-7.93
			c-2.39-2.42-5.62-2.41-8.69-2.7c-1.82-0.18-3.81,0.36-4.14-2.49c-0.34-2.92,1.75-3.89,3.68-4.17c9.19-1.32,18.1-3.89,27.15-5.83
			c1.1-0.24,1.89-0.06,2.71,0.67C206.68,69.6,210.77,74.97,213.75,81.17z"/>
		<path class="st6" d="M239.13,178.53c7.11-3.05,12-8.35,15.97-15.02c1.15,1.15,2.86,2.06,4.18-0.67
			c3.37,5.19,6.81,10.33,10.09,15.58c1.87,2.99,4.4,4.78,7.91,4.82c3.82,0.04,3.02,2.7,3.15,4.98c0.17,2.93-1.9,2.32-3.56,2.33
			c-9.24,0.03-18.47-0.05-27.71,0.09c-2.28,0.03-3.76-0.64-4.82-2.64C242.68,184.79,240.88,181.67,239.13,178.53z"/>
		<path class="st9" d="M88.53,40.08c-4.71-1.39-5.95-0.15-6.02,6.01c-2.69-2.99-3.53-6.98-5.77-10.27
			C68.63,23.88,58.59,14.6,44.21,10.81c-2.23-0.59-4.35-1.6-6.48-2.66c6.69,0.07,13.22,1.15,19.69,2.92
			c14.42,3.94,26.92,11.21,38.01,21.16c4.17,3.74,8.2,7.5,11.17,12.28c-3.1-2.16-5.66-5-9.58-6.09c-2.86-0.79-4.54-0.5-5.47,2.38
			c-0.95,0.38-1.32-0.35-1.75-0.93c-5.47-7.43-12.09-13.69-17.84-17.88c4.15,2.58,8.87,7.66,13.64,12.66
			C87,36.11,89.12,37.44,88.53,40.08z"/>
		<path class="st10" d="M124.38,76.01c5.72,16.9,6.07,34.03,2.14,51.33c-0.19,0.83-0.26,1.7-0.38,2.55
			c-3.31,10.6-7.48,20.77-13.81,30.01c-12.84,18.77-30.03,31.54-51.79,38.22c-1.17,0.36-3.26-0.24-3.38,2.05
			c-1.62,0.12-2.24-0.8-2.35-2.25c12.05-3.4,23.4-8.25,33.54-15.77c9.99-7.41,18.19-16.38,24.44-27.13c0.37-0.64,0.86-1.2,1.3-1.8
			c5.13-8.13,8.72-16.88,10.58-26.31c2.99-9.03,3.08-18.35,2.76-27.71c-0.59-1.11-0.89-2.29-1.02-3.55
			c-0.56-5.32-1.21-10.62-2.84-15.75c-0.41-1.29-0.86-2.65,0.2-3.89C123.96,76.02,124.17,76.02,124.38,76.01z"/>
		<path class="st11" d="M0.15,126.1c0.22,0.07,0.44,0.08,0.67,0.04c3.22-0.5,6.07,1.11,9.1,1.66c19.5,3.54,37.06-0.49,52.4-13.22
			c7.18-5.96,12.76-13.21,16.6-21.74c0.46-1.02,0.83-2.09,1.87-2.71c0.67-0.22,1.11,0.08,1.44,0.63c0.73,1.98-0.32,3.66-1.07,5.31
			c-2.19,4.85-4.6,9.59-9,12.92c-13.27,15.31-30.12,22.96-50.33,22.97c-5.96,0-11.95-0.87-17.6-2.98c-2.66-0.99-3.75-0.59-3.46,2.4
			c0.15,1.48,0.03,2.98,0.03,4.48C-0.71,132.69,0.42,129.35,0.15,126.1z"/>
		<path class="st12" d="M81.9,91.07c-0.26-0.27-0.52-0.55-0.78-0.82c-1.22-1.58-0.26-3.11,0.19-4.6c2.67-8.73,2.94-17.64,1.98-26.61
			c-0.51-4.82-0.77-4.86-5.46-5.16c-1.25-0.08-2.5-0.11-3.53-0.96c-2.75-0.04-5.51-0.09-8.26-0.13c4.18-1.58,8.53-0.36,12.79-0.75
			c1.55-0.14,3.25,0.57,4.61-0.75c2.64,7.7,3.36,15.6,2.56,23.67c-0.11,1.1-0.25,2.19-0.37,3.29C86.72,82.71,84.91,88.92,81.9,91.07
			z"/>
		<path class="st1" d="M14.22,165.86c6.35,0.01,12.7,0.02,19.05,0.03C26.92,167.05,20.57,167.13,14.22,165.86z"/>
		<path class="st13" d="M81.9,91.07c2.61-3.87,2.8-8.45,3.73-12.82c6.16-1.89,12.71-2.01,19.51-5.02c-0.91,1.51-1.27,2.11-1.63,2.72
			c1.1,4,1.01,8.12,1.45,12.22c0.67-2.13,0.54-4.28,0.22-6.46c-0.25-1.7-0.81-3.45,0.59-4.97c0.05-1.2-0.29-2.59,1.23-3.19
			c3.66-1.43,7.27-3.1,11.05-4.11c2.19-0.59,3.7,1.39,4.23,3.35c0.33,1.21,0.47,2.36,1.47,3.21c1.48,6.33,3.39,12.58,3.7,19.13
			c0.06,1.35-0.02,2.71-0.04,4.07c-2.35-2.68-5.23-0.79-7.7-0.55c-3.66,0.36-7.2,1.82-10.83,2.62c-1.92,0.42-3,1.54-3.71,3.21
			c-1.1-0.51-0.63-1.74-1.18-2.57c-1.68,0.85-0.23,3.79-2.73,4.04c-0.73-3.44-3.53-2.55-5.36-1.99c-4.95,1.51-10,2.53-15.01,3.75
			c-2.92,0.71-5.75,1.34-8.74,1.29C75.95,103.3,80.41,97.99,81.9,91.07z"/>
		<path class="st0" d="M93.59,134.29c-5.5,7.89-11.86,14.93-19.42,20.96c-2.48,1.98-3.3,0.06-4.46-1.05
			c-1.86-1.77,0.33-2.22,1.24-2.91c5.9-4.41,11.18-9.43,15.53-15.39c0.67-0.72,1.4-1.4,2-2.17
			C90.77,130.78,91.48,130.85,93.59,134.29z"/>
		<path class="st14" d="M101.28,105.94c1.1-1.06,0.6-2.6,1.14-3.84c0.42-0.97,0.32-2.4,1.99-2.11c1.96,0.34,0.71,1.7,0.76,2.64
			c0.03,0.62,0.01,1.23,0.01,1.85c-0.75,4.78-2.31,9.33-3.88,13.89c-0.55,1.59-1.14,3.24-3.34,2.26c-2.1-0.93-0.58-2.3-0.17-3.4
			C99.18,113.53,100.51,109.83,101.28,105.94z"/>
		<path class="st7" d="M74.31,52.92c0.5-0.03,0.99-0.09,1.49-0.09c9.34,0.15,7.68-1.35,8.84,8.52c1.15,9.81-0.29,19.51-3.51,28.9
			c-6.86,16.95-18.79,29-35.78,35.6c-14.66,5.69-29.64,5.94-44.52,0.3c0.04-1.37-0.19-2.81,0.19-4.08c0.6-2.03,0.08-4.44,3.22-5.55
			c2.23-0.79,2.94-4,4.73-5.95c4.46-4.87,9.88-8.66,14.52-13.34c2.52-2.55,5.49-5.98,9.57-7.1c0.78-0.21,1.15-0.86,1.59-1.48
			c3.92-5.56,9.02-9.74,15.08-12.77c1.23-0.61,1.57-1.89,2.38-2.8c5.6-6.29,13.07-10.57,18.41-17.14
			C71.51,54.69,74.16,55.36,74.31,52.92z"/>
		<path class="st15" d="M88.53,40.08c-2.91-5.94-7.99-9.96-12.78-14.21c-2.47-2.19-5.22-4.07-7.58-6.39
			c9.62,5.08,16.57,13.12,23.38,21.32c5.64,7.72,9.35,16.34,11.82,25.52c0.21,0.79,1.68,2.25-0.26,2.68
			c-1.43,0.32-1.6-1.14-1.86-2.26c-2.22-9.29-6.2-17.78-11.77-25.54C89.2,40.8,88.85,40.45,88.53,40.08z"/>
		<path class="st16" d="M105.77,76.74c0.23,3.68,0.49,7.35,0.69,11.03c0.07,1.25,0.12,2.78-1.66,2.65
			c-1.56-0.12-1.12-1.64-1.18-2.67c-0.18-3.05,0.32-6.13-0.8-9.12c-0.32-0.86-0.28-1.98,0.68-2.69
			C104.26,76.21,105.01,76.48,105.77,76.74z"/>
	</g>
	<path class="st4" d="M16.18,172.76"/>
</g>
</svg>
